<?xml version="1.0" standalone="no"?>
<!DOCTYPE svg PUBLIC "-//W3C//DTD SVG 20010904//EN"
 "http://www.w3.org/TR/2001/REC-SVG-20010904/DTD/svg10.dtd">
<svg version="1.0" xmlns="http://www.w3.org/2000/svg"
 width="260.000000pt" height="260.000000pt" viewBox="0 0 260.000000 260.000000"
 preserveAspectRatio="xMidYMid meet">
<metadata>
Created by potrace 1.11, written by Peter Selinger 2001-2013
</metadata>
<g transform="translate(0.000000,260.000000) scale(0.100000,-0.100000)"
fill="#000000" stroke="none">
<path d="M450 2365 c-13 -64 -22 -258 -27 -580 -10 -555 -6 -665 23 -665 8 0
27 -12 42 -27 l27 -28 691 -3 c633 -3 695 -2 730 14 22 9 57 20 79 23 l40 6 0
622 c0 342 -2 623 -5 626 -4 3 -1599 16 -1600 12z m1214 -32 l369 -6 -5 -589
c-3 -324 -7 -590 -9 -592 -2 -2 -21 -1 -41 1 -24 3 -35 9 -32 18 8 19 -65 21
-666 23 -294 1 -585 5 -646 8 l-111 7 -6 213 c-8 258 2 865 14 879 10 10 443
14 499 4 19 -4 -86 -7 -234 -8 l-269 -1 7 -177 c4 -98 9 -209 13 -248 10 -127
12 -215 3 -215 -4 0 -6 -19 -3 -42 5 -32 3 -39 -7 -33 -10 6 -11 1 -5 -21 10
-43 19 -150 17 -223 -2 -50 1 -62 12 -58 8 3 30 -3 49 -13 52 -28 325 -42 802
-40 220 1 425 -1 455 -4 30 -3 47 -3 38 0 -10 3 -18 10 -18 15 0 16 26 10 45
-11 17 -19 18 -19 36 3 l18 22 2 -30 c1 -24 3 -21 10 15 12 71 11 682 -2 675
-6 -4 -8 -13 -5 -20 3 -8 -2 -19 -10 -25 -12 -11 -14 16 -14 198 0 116 -3 213
-8 216 -4 2 -138 6 -297 8 -160 1 -308 5 -330 8 l-40 6 40 8 c22 4 47 9 55 11
8 1 -193 3 -447 4 -301 1 -463 4 -463 11 0 12 621 13 1184 3z m-477 -37 c4 -3
-23 -6 -58 -5 -38 0 -57 3 -45 8 21 8 94 6 103 -3z m103 4 c0 -5 -5 -10 -11
-10 -5 0 -7 5 -4 10 3 6 8 10 11 10 2 0 4 -4 4 -10z m35 -250 c44 -6 95 -14
114 -20 59 -17 167 -88 215 -141 50 -56 64 -91 73 -190 5 -57 3 -71 -19 -110
-14 -26 -38 -51 -59 -61 -46 -24 -121 -24 -143 0 -15 18 -15 21 4 45 l21 27
-29 -6 c-26 -5 -30 -3 -35 25 -7 34 -29 38 -37 6 -4 -15 -16 -21 -43 -23 -21
-2 -37 0 -36 5 1 4 1 21 0 36 -1 32 -21 27 -21 -6 0 -19 -3 -18 -35 13 -29 30
-34 40 -30 70 3 19 2 28 -1 20 -13 -29 -37 -50 -60 -50 -29 0 -57 28 -51 50 2
9 -2 28 -10 41 -13 22 -13 21 -7 -21 10 -73 23 -87 72 -81 20 3 61 -26 111
-77 25 -26 47 -40 49 -34 7 23 62 13 89 -15 42 -46 54 -91 30 -115 -7 -7 -16
-20 -19 -29 -4 -10 -30 -25 -58 -34 -64 -21 -126 -15 -184 19 -23 13 -61 27
-86 31 -25 4 -60 15 -78 26 -35 20 -142 27 -142 9 0 -5 9 -10 20 -10 11 0 20
-4 20 -8 0 -4 10 -8 22 -9 12 -1 28 -9 37 -18 14 -13 13 -15 -4 -15 -18 0 -18
-2 4 -19 19 -14 22 -22 14 -36 -10 -17 -11 -17 -22 3 -7 12 -19 22 -27 22 -36
0 -116 54 -135 92 -11 21 -25 38 -33 38 -34 0 -67 84 -62 160 5 80 73 197 170
293 61 59 223 122 291 112 17 -3 66 -9 110 -15z m479 -63 c8 -13 6 -21 -9 -36
-28 -27 -75 -18 -75 14 0 16 8 26 28 33 33 13 43 11 56 -11z m178 -187 c-6
-41 -12 -38 -12 6 0 19 4 33 8 30 5 -3 7 -19 4 -36z m-1 -351 c0 -39 -3 -74
-6 -77 -3 -3 -5 32 -5 78 0 46 3 81 6 77 3 -3 6 -38 5 -78z m-4 -111 c-3 -8
-6 -5 -6 6 -1 11 2 17 5 13 3 -3 4 -12 1 -19z"/>
<path d="M1423 2314 c7 -7 159 -6 166 1 2 3 -35 5 -84 5 -49 0 -85 -3 -82 -6z"/>
<path d="M1922 2304 c10 -9 78 -12 84 -3 3 5 -16 9 -42 9 -26 0 -45 -3 -42 -6z"/>
<path d="M1350 1906 c0 -2 7 -7 16 -10 8 -3 12 -2 9 4 -6 10 -25 14 -25 6z"/>
<path d="M1540 1859 c0 -5 5 -7 10 -4 6 3 10 8 10 11 0 2 -4 4 -10 4 -5 0 -10
-5 -10 -11z"/>
<path d="M1291 1838 c2 -2 18 -14 34 -28 l30 -25 -24 28 c-14 15 -29 27 -34
27 -6 0 -8 -1 -6 -2z"/>
<path d="M1419 1818 c17 -22 31 -23 57 -3 18 14 17 14 -8 4 -22 -10 -31 -9
-45 2 -16 13 -17 12 -4 -3z"/>
<path d="M1220 1808 c0 -7 4 -19 9 -26 6 -11 10 -10 19 0 8 11 6 17 -9 26 -15
10 -19 10 -19 0z"/>
<path d="M1038 1753 c-7 -53 -5 -69 12 -98 11 -20 20 -44 20 -55 0 -17 -7 -20
-48 -20 -28 0 -57 7 -71 16 -22 16 -23 16 -12 -5 10 -18 21 -21 70 -21 44 0
62 -4 75 -19 17 -18 66 -35 66 -22 0 3 -13 12 -30 19 -19 9 -30 21 -30 33 0
16 4 18 18 11 9 -5 34 -12 55 -16 60 -11 89 -27 76 -42 -7 -8 -7 -14 1 -19 5
-3 10 1 10 9 0 8 7 19 16 24 12 7 1 13 -47 25 -35 9 -72 18 -83 19 -10 2 -32
23 -50 46 -25 36 -32 56 -36 110 l-5 67 -7 -62z"/>
<path d="M1525 1769 c-5 -7 5 -8 29 -4 28 6 37 4 42 -9 3 -9 12 -16 20 -16 10
0 8 6 -6 20 -21 21 -74 27 -85 9z"/>
<path d="M1435 1750 c-12 -20 4 -60 25 -60 10 0 21 -4 24 -9 3 -5 22 -12 42
-15 27 -6 38 -14 45 -34 12 -36 37 -50 74 -41 l30 7 -34 1 c-27 1 -31 4 -22
14 8 11 6 13 -12 13 -13 -1 -22 5 -22 14 0 8 -27 28 -60 45 -33 17 -65 41 -71
53 -8 16 -14 20 -19 12z"/>
<path d="M895 1692 c-4 -29 -4 -56 -1 -59 3 -4 6 4 6 16 0 12 4 30 9 39 5 9 5
26 1 37 -5 15 -9 6 -15 -33z"/>
<path d="M1355 1730 c-3 -5 -1 -10 4 -10 6 0 11 5 11 10 0 6 -2 10 -4 10 -3 0
-8 -4 -11 -10z"/>
<path d="M1686 1716 c3 -9 13 -16 22 -16 8 0 13 1 11 3 -2 1 -12 9 -22 16 -15
12 -17 12 -11 -3z"/>
<path d="M1645 1700 c-3 -5 -1 -10 4 -10 6 0 11 5 11 10 0 6 -2 10 -4 10 -3 0
-8 -4 -11 -10z"/>
<path d="M800 1676 c0 -2 7 -7 16 -10 8 -3 12 -2 9 4 -6 10 -25 14 -25 6z"/>
<path d="M920 1673 c0 -5 9 -19 20 -33 18 -23 20 -23 20 -5 0 11 -9 26 -20 33
-11 7 -20 9 -20 5z"/>
<path d="M1685 1650 c3 -5 8 -10 11 -10 2 0 4 5 4 10 0 6 -5 10 -11 10 -5 0
-7 -4 -4 -10z"/>
<path d="M950 1552 c0 -6 -8 -13 -17 -15 -16 -4 -16 -5 -1 -6 18 -1 34 16 24
26 -3 4 -6 1 -6 -5z"/>
<path d="M1390 1543 c0 -5 7 -18 15 -29 8 -10 15 -35 16 -54 l1 -35 9 30 c5
17 6 37 4 46 -7 20 -45 56 -45 42z"/>
<path d="M1538 1533 c6 -2 18 -2 25 0 6 3 1 5 -13 5 -14 0 -19 -2 -12 -5z"/>
<path d="M1036 1510 c6 -6 35 -13 65 -15 l54 -5 -50 15 c-60 18 -83 19 -69 5z"/>
<path d="M1330 1472 c0 -4 12 -12 26 -19 17 -8 24 -8 22 -1 -5 13 -48 31 -48
20z"/>
<path d="M1122 1461 c-10 -6 -7 -10 12 -13 21 -4 24 -3 15 8 -13 16 -11 16
-27 5z"/>
<path d="M1208 1439 c4 -4 21 -9 37 -11 22 -2 31 -9 33 -25 2 -13 8 -23 13
-23 6 0 7 5 4 10 -3 6 4 14 17 19 21 9 21 10 3 10 -12 1 -26 6 -33 13 -6 6
-27 12 -47 13 -19 0 -31 -2 -27 -6z"/>
<path d="M1365 1380 c3 -5 8 -10 11 -10 2 0 4 5 4 10 0 6 -5 10 -11 10 -5 0
-7 -4 -4 -10z"/>
<path d="M2249 1163 c-12 -16 -12 -17 2 -6 9 7 20 9 24 5 5 -4 5 -1 1 6 -9 16
-11 15 -27 -5z"/>
<path d="M2216 1106 c6 -16 36 -15 42 2 2 7 -7 12 -22 12 -18 0 -24 -4 -20
-14z"/>
<path d="M397 1017 c-16 -14 -16 -15 5 -21 13 -4 439 -9 947 -13 792 -5 923
-4 919 8 -7 22 -90 25 -628 27 -272 1 -659 4 -860 8 -308 4 -368 3 -383 -9z"/>
<path d="M577 913 c-4 -3 -7 -12 -7 -20 0 -11 32 -13 167 -11 151 3 168 5 171
21 3 15 -8 17 -117 17 -92 0 -120 -3 -118 -12 1 -9 -14 -14 -43 -16 -47 -3
-47 12 0 21 19 3 16 5 -11 6 -20 0 -39 -2 -42 -6z"/>
<path d="M927 903 c-17 -17 -2 -23 57 -23 48 0 65 4 70 15 4 11 -2 15 -24 15
-17 0 -30 -4 -30 -10 0 -5 -12 -10 -27 -9 l-28 1 25 8 c24 8 24 8 -6 9 -17 1
-34 -2 -37 -6z"/>
<path d="M520 770 c0 -5 14 -10 30 -10 17 0 30 5 30 10 0 6 -13 10 -30 10 -16
0 -30 -4 -30 -10z"/>
<path d="M600 768 c0 -3 10 -8 23 -10 12 -2 22 -10 22 -18 0 -8 6 -21 13 -28
7 -8 10 -18 7 -23 -4 -5 3 -9 14 -9 26 0 33 -13 22 -42 l-10 -23 -7 23 c-5 16
-14 22 -35 22 -29 0 -39 14 -16 23 6 3 -6 6 -28 6 -65 2 -116 13 -112 25 2 7
29 11 68 10 35 -1 46 1 24 3 -61 5 -86 13 -80 23 3 6 4 10 1 10 -5 0 -36 -66
-36 -76 0 -2 27 -4 61 -4 57 0 60 -1 57 -22 -3 -20 1 -22 34 -20 28 3 37 -1
42 -16 5 -15 17 -19 64 -21 31 -1 59 -6 60 -11 2 -6 24 -10 48 -10 27 0 43 4
39 10 -3 5 -19 8 -35 6 -25 -3 -29 0 -35 30 -5 30 -10 34 -37 34 -23 0 -29 4
-24 15 4 11 -2 15 -25 15 -20 0 -29 4 -26 13 2 6 14 11 26 10 11 -2 21 2 21 7
0 6 -16 10 -35 10 -38 0 -46 13 -17 29 21 13 19 13 -40 15 -27 1 -48 -2 -48
-6z"/>
<path d="M732 772 c-12 -2 -20 -7 -17 -12 3 -4 14 -6 25 -3 16 4 20 0 20 -21
0 -14 5 -26 10 -26 6 0 10 -6 10 -14 0 -8 10 -16 23 -18 16 -2 21 -9 20 -26
-3 -21 0 -22 37 -16 l40 7 0 -34 0 -34 326 -4 c269 -2 325 0 322 11 -4 10 -66
14 -311 16 l-305 2 -7 30 c-6 26 -11 30 -41 30 -33 0 -46 13 -21 23 6 3 -5 6
-25 6 -42 1 -54 21 -13 21 14 0 25 5 25 10 0 6 -13 10 -30 10 -20 0 -30 5 -30
15 0 8 5 15 10 15 6 0 10 3 10 8 0 7 -38 9 -78 4z"/>
<path d="M825 760 c4 -6 15 -8 26 -5 17 6 24 -3 20 -27 -2 -15 34 -48 51 -48
16 0 23 -11 19 -32 0 -5 21 -8 49 -8 28 0 50 5 50 10 0 6 -16 10 -35 10 -34 0
-47 13 -22 23 6 3 -5 6 -25 6 -42 1 -54 21 -13 21 14 0 25 5 25 10 0 6 -16 10
-35 10 -37 0 -43 8 -23 28 9 9 0 12 -41 12 -33 0 -50 -4 -46 -10z"/>
<path d="M940 760 c0 -5 10 -9 22 -7 17 1 24 -4 26 -20 2 -13 8 -23 13 -23 5
0 9 -9 9 -20 0 -17 5 -19 25 -14 21 5 25 3 25 -15 0 -18 6 -21 45 -21 25 0 45
5 45 10 0 6 -14 10 -31 10 -24 0 -30 4 -25 16 3 8 2 12 -4 9 -13 -8 -50 4 -50
16 0 5 12 9 26 9 14 0 23 4 20 9 -3 5 -17 9 -31 9 -33 0 -41 8 -25 27 11 13 6
15 -39 15 -28 0 -51 -4 -51 -10z"/>
<path d="M1050 756 c0 -4 11 -5 25 -2 24 6 28 0 24 -31 0 -3 6 -10 15 -15 9
-5 16 -16 16 -24 0 -11 6 -13 21 -9 15 5 22 2 26 -14 4 -17 13 -21 51 -21 48
0 54 8 9 12 -15 1 -27 8 -27 14 0 6 -13 14 -30 18 -38 7 -39 23 -2 29 26 4 25
4 -5 6 -37 1 -50 16 -32 37 11 13 6 15 -39 12 -29 -2 -52 -7 -52 -12z"/>
<path d="M1180 760 c-12 -8 -9 -10 13 -10 20 0 27 -5 27 -20 0 -11 4 -20 9
-20 5 0 13 -9 16 -21 8 -23 31 -20 27 4 -2 10 7 17 25 20 22 3 20 4 -11 6 -35
1 -38 3 -32 26 6 23 4 25 -26 25 -18 0 -40 -5 -48 -10z"/>
<path d="M1295 760 c-18 -8 -17 -9 8 -9 24 -1 32 -10 28 -33 0 -5 6 -8 14 -8
8 0 15 -9 15 -20 0 -11 7 -20 15 -20 8 0 15 9 15 19 0 12 8 21 23 24 13 3 8 5
-15 6 -27 1 -38 6 -38 16 0 8 5 15 10 15 6 0 10 5 10 10 0 12 -57 12 -85 0z"/>
<path d="M1405 760 c-17 -7 -15 -9 13 -9 24 -1 32 -5 32 -20 0 -10 7 -21 15
-25 8 -3 15 -12 15 -21 0 -8 7 -15 15 -15 9 0 15 7 13 17 -2 11 6 19 22 24 21
6 19 7 -14 8 -36 1 -38 3 -32 26 6 23 4 25 -26 24 -18 0 -42 -4 -53 -9z"/>
<path d="M1525 760 c-18 -8 -17 -9 7 -9 17 -1 29 -8 33 -21 3 -11 10 -20 15
-20 5 0 12 -9 15 -20 3 -11 12 -20 20 -20 8 0 11 7 8 20 -4 16 0 20 18 21 17
1 13 4 -11 8 -29 5 -35 10 -33 29 2 18 -2 22 -25 21 -15 0 -36 -4 -47 -9z"/>
<path d="M1635 760 c-17 -7 -15 -9 13 -9 25 -1 32 -5 32 -21 0 -11 7 -20 15
-20 8 0 15 -9 15 -20 0 -13 7 -20 19 -20 14 0 18 5 14 19 -4 14 1 21 19 24 15
3 9 5 -16 6 -33 1 -38 4 -33 21 4 15 0 20 -13 20 -10 0 -24 2 -32 4 -7 3 -22
1 -33 -4z"/>
<path d="M1748 758 c-9 -5 -3 -8 15 -8 17 0 27 -5 27 -15 0 -8 9 -19 20 -25
11 -6 20 -18 20 -26 0 -9 6 -14 13 -11 6 2 11 11 9 21 -2 11 5 16 20 17 15 1
11 4 -12 8 -27 5 -35 11 -33 26 1 16 -4 20 -32 21 -19 0 -40 -3 -47 -8z"/>
<path d="M1863 759 c-13 -6 -9 -8 15 -8 27 -1 32 -5 32 -26 0 -16 4 -23 14
-19 8 3 16 -3 19 -15 3 -12 10 -21 16 -21 17 0 13 38 -6 48 -9 6 -14 16 -10
25 4 11 -3 16 -28 19 -18 2 -42 1 -52 -3z"/>
<path d="M1980 760 c-12 -8 -9 -10 13 -10 22 0 27 -4 27 -26 0 -19 4 -25 14
-21 9 4 17 -2 21 -14 5 -14 15 -19 41 -19 19 0 34 5 34 10 0 6 -11 10 -25 10
-14 0 -28 7 -31 15 -4 8 -12 15 -20 15 -8 0 -14 9 -14 20 0 11 -4 20 -9 20 -5
0 -15 2 -23 5 -7 3 -20 0 -28 -5z"/>
<path d="M2170 729 c0 -5 21 -9 47 -9 25 0 44 2 42 4 -10 8 -89 13 -89 5z"/>
<path d="M1298 654 c3 -17 9 -23 19 -20 8 3 29 7 46 7 l32 2 -35 6 c-20 4 -34
12 -32 19 1 7 -6 12 -17 12 -14 0 -17 -6 -13 -26z"/>
<path d="M1412 660 c10 -16 23 -20 63 -19 l50 2 -40 6 c-24 4 -39 11 -37 19 1
7 -8 12 -23 12 -23 0 -24 -2 -13 -20z"/>
<path d="M1539 651 c12 -16 21 -41 21 -55 0 -25 3 -26 50 -26 39 0 50 4 50 16
0 8 -4 13 -10 9 -15 -9 -60 6 -60 21 0 8 7 14 15 14 27 0 16 19 -12 22 -16 2
-27 8 -25 16 1 7 -8 12 -24 12 l-25 0 20 -29z"/>
<path d="M1648 655 c2 -14 11 -25 18 -25 9 0 14 -11 14 -30 0 -29 1 -30 50
-30 28 0 50 5 50 10 0 6 -16 10 -35 10 -39 0 -48 23 -17 46 15 12 13 13 -17
14 -25 0 -32 4 -27 15 4 11 -1 15 -18 15 -19 0 -22 -4 -18 -25z"/>
<path d="M1768 658 c3 -13 11 -27 19 -31 7 -4 13 -19 13 -32 0 -24 3 -25 56
-25 34 0 53 4 49 10 -3 6 -20 10 -36 10 -30 0 -54 30 -31 38 22 7 13 22 -13
22 -16 0 -25 6 -25 15 0 8 -9 15 -19 15 -15 0 -18 -5 -13 -22z"/>
<path d="M1888 658 c3 -13 11 -27 19 -31 7 -4 13 -19 13 -32 0 -24 3 -25 56
-25 35 0 53 4 49 10 -4 6 -12 10 -18 9 -38 -5 -57 2 -57 21 0 11 7 20 15 20 8
0 15 5 15 10 0 6 -9 10 -19 10 -11 0 -26 7 -35 15 -23 23 -45 19 -38 -7z"/>
<path d="M446 629 c-9 -22 -16 -42 -16 -44 0 -3 47 -5 105 -5 87 0 105 3 105
15 0 12 -17 15 -90 15 -73 0 -90 3 -90 15 0 12 13 15 57 15 67 0 61 15 -9 22
-47 5 -47 5 -62 -33z"/>
<path d="M2152 650 c0 -14 2 -19 5 -12 2 6 2 18 0 25 -3 6 -5 1 -5 -13z"/>
<path d="M2029 637 c6 -6 11 -24 11 -39 0 -18 5 -28 15 -28 10 0 15 10 15 30
0 17 5 30 10 30 6 0 10 4 10 8 0 4 -16 8 -36 9 -26 1 -33 -2 -25 -10z"/>
<path d="M2161 604 c0 -11 3 -14 6 -6 3 7 2 16 -1 19 -3 4 -6 -2 -5 -13z"/>
<path d="M2080 580 c0 -5 16 -10 36 -10 21 0 33 4 29 10 -3 6 -19 10 -36 10
-16 0 -29 -4 -29 -10z"/>
<path d="M80 460 c0 -21 11 -66 24 -101 24 -66 48 -89 95 -89 14 0 32 -7 42
-16 15 -14 132 -16 1078 -21 956 -6 1063 -5 1078 10 10 8 32 17 48 19 32 3 45
28 60 115 12 74 42 71 -660 77 -1457 14 -1667 18 -1716 30 l-49 13 0 -37z"/>
</g>
</svg>
